<svg xmlns="http://www.w3.org/2000/svg" xmlns:xlink="http://www.w3.org/1999/xlink" width="80px" height="64px" viewBox="0 0 80 64" version="1.1"><title>placeholder</title><desc>Created with Sketch.</desc><g id="Page-1" stroke="none" stroke-width="1" fill="none" fill-rule="evenodd"><g id="image-placeholder" transform="translate(-620.000000, -368.000000)" fill="#FFFFFF" fill-rule="nonzero"><g id="Group" transform="translate(500.000000, 368.000000)"><g id="placeholder" transform="translate(120.000000, 0.000000)"><path d="M32 16L48 16 48 8 56 8 56 16 64 16 64 24 72 24 72 32 80 32 80 48 72 48 72 40 64 40 64 48 56 48 56 56 48 56 48 48 32 48 32 56 24 56 24 48 16 48 16 40 8 40 8 48 0 48 0 32 8 32 8 24 16 24 16 16 24 16 24 8 32 8 32 16ZM24 32L32 32 32 24 24 24 24 32ZM16 0L24 0 24 8 16 8 16 0ZM16 56L24 56 24 64 16 64 16 56ZM56 32L56 24 48 24 48 32 56 32ZM64 0L64 8 56 8 56 0 64 0ZM64 56L64 64 56 64 56 56 64 56Z" id="Shape"/></g></g></g></g></svg>